<?xml version="1.0" standalone="no"?>
<!DOCTYPE svg PUBLIC "-//W3C//DTD SVG 20010904//EN"
 "http://www.w3.org/TR/2001/REC-SVG-20010904/DTD/svg10.dtd">
<svg version="1.0" xmlns="http://www.w3.org/2000/svg"
 width="226.000000pt" height="223.000000pt" viewBox="0 0 226.000000 223.000000"
 preserveAspectRatio="xMidYMid meet">

<g transform="translate(0.000000,223.000000) scale(0.100000,-0.100000)"
fill="#000000" stroke="none">
<path d="M378 1483 l-78 -4 0 -119 0 -120 24 0 c22 0 25 5 28 43 l3 42 48 3
c46 3 56 13 39 38 -4 6 -18 11 -32 11 -55 0 -60 3 -60 28 0 24 3 25 55 25 54
0 55 0 55 30 0 17 -1 29 -2 28 -2 -1 -38 -4 -80 -5z"/>
<path d="M494 1476 c-10 -26 4 -48 28 -44 17 2 23 10 23 28 0 18 -6 26 -23 28
-13 2 -25 -3 -28 -12z"/>
<path d="M737 1484 c-10 -11 -9 -42 3 -49 20 -12 51 6 48 28 -3 22 -36 35 -51
21z"/>
<path d="M497 1403 c-4 -3 -7 -35 -7 -70 0 -65 20 -103 55 -103 12 0 14 13 9
78 -3 42 -7 83 -10 90 -4 13 -36 17 -47 5z"/>
<path d="M590 1325 c0 -84 0 -85 25 -85 23 0 25 3 25 48 0 53 12 72 47 72 18
0 23 6 23 25 0 27 -18 32 -51 15 -13 -7 -19 -7 -19 0 0 5 -11 10 -25 10 -25 0
-25 -1 -25 -85z"/>
<path d="M737 1404 c-4 -4 -7 -49 -7 -101 0 -76 -3 -93 -15 -93 -9 0 -15 -9
-15 -25 0 -30 27 -34 59 -7 18 15 21 29 22 122 2 97 0 105 -18 108 -10 2 -22
0 -26 -4z"/>
<path d="M845 1388 c-20 -16 -25 -28 -25 -67 0 -33 5 -53 18 -63 28 -26 61
-31 85 -15 19 12 26 12 41 2 9 -7 25 -12 34 -11 23 4 28 37 8 48 -12 7 -16 24
-16 67 l0 58 -60 0 c-45 1 -66 -4 -85 -19z m90 -68 c0 -31 -3 -35 -27 -38 -34
-4 -54 27 -38 59 8 14 19 19 38 17 24 -3 27 -7 27 -38z"/>
<path d="M1047 1403 c-4 -3 -7 -42 -7 -85 l0 -78 30 0 c30 0 30 1 30 54 0 62
18 87 44 61 10 -10 16 -33 16 -61 0 -45 4 -50 45 -56 14 -2 21 3 23 20 2 12
-1 22 -7 22 -6 0 -11 19 -11 43 0 55 -22 87 -60 87 -16 0 -32 -5 -36 -11 -4
-8 -9 -8 -17 0 -12 12 -40 15 -50 4z"/>
</g>
</svg>
